<svg xmlns="http://www.w3.org/2000/svg" width="32" height="32" viewBox="0 0 32 32">
  <path id="iconmonstr-whatsapp-1" d="M.057,32l2.26-8.217A15.853,15.853,0,0,1,16.124,0,15.863,15.863,0,1,1,8.5,29.795L.057,32Zm8.838-5.076a13.407,13.407,0,0,0,7.224,2.123,13.172,13.172,0,1,0-10.9-5.679L3.882,28.232l5.013-1.308ZM24.15,19.639c-.1-.165-.364-.264-.764-.463s-2.355-1.157-2.721-1.289-.63-.2-.9.2-1.029,1.289-1.261,1.553-.465.3-.863.1a10.877,10.877,0,0,1-3.2-1.967,11.936,11.936,0,0,1-2.215-2.745c-.232-.4-.024-.611.174-.808.18-.177.4-.463.6-.695a2.6,2.6,0,0,0,.4-.66.725.725,0,0,0-.033-.695c-.1-.2-.9-2.148-1.227-2.941-.324-.772-.652-.668-.9-.68l-.764-.013a1.462,1.462,0,0,0-1.061.5,4.437,4.437,0,0,0-1.393,3.305,7.692,7.692,0,0,0,1.625,4.1c.2.264,2.807,4.267,6.8,5.983a23.106,23.106,0,0,0,2.269.835,5.5,5.5,0,0,0,2.508.157,4.1,4.1,0,0,0,2.687-1.884,3.286,3.286,0,0,0,.232-1.885Z" transform="translate(-0.057)" fill="#fdca3b"/>
</svg>
