<svg id="Lixeira" xmlns="http://www.w3.org/2000/svg" width="10.792" height="14.648" viewBox="0 0 10.792 14.648">
  <path id="Path_116" data-name="Path 116" d="M.881,4.359v8.452a2,2,0,0,0,.456,1.305,1.469,1.469,0,0,0,1.112.53H8.337a1.469,1.469,0,0,0,1.112-.53,2,2,0,0,0,.456-1.305V4.359a1.313,1.313,0,0,0,.874-1.436A1.235,1.235,0,0,0,9.6,1.782H8.007V1.354A1.421,1.421,0,0,0,7.648.392,1.167,1.167,0,0,0,6.775,0H4.011a1.167,1.167,0,0,0-.873.393,1.421,1.421,0,0,0-.359.962v.429H1.186A1.235,1.235,0,0,0,.007,2.923,1.313,1.313,0,0,0,.881,4.359Zm7.456,9.6H2.449A1.049,1.049,0,0,1,1.5,12.811V4.389h7.78v8.422a1.049,1.049,0,0,1-.946,1.149ZM3.4,1.354A.7.7,0,0,1,3.578.877.572.572,0,0,1,4.011.685H6.775a.572.572,0,0,1,.433.192.7.7,0,0,1,.177.477v.429H3.4ZM1.186,2.468H9.6a.591.591,0,0,1,.56.617A.591.591,0,0,1,9.6,3.7H1.186a.591.591,0,0,1-.56-.617A.591.591,0,0,1,1.186,2.468Zm0,0" transform="translate(0.003 0.002)"/>
  <path id="Path_120" data-name="Path 120" d="M11310.75,1276v4.608" transform="translate(-11305.25 -1269.046)" fill="none" stroke="#000" stroke-linecap="round" stroke-width="0.5"/>
  <path id="Path_122" data-name="Path 122" d="M11310.75,1276v4.608" transform="translate(-11307.25 -1269.046)" fill="none" stroke="#000" stroke-linecap="round" stroke-width="0.5"/>
  <path id="Path_121" data-name="Path 121" d="M11310.75,1276v4.608" transform="translate(-11303.25 -1269.046)" fill="none" stroke="#000" stroke-linecap="round" stroke-width="0.5"/>
</svg>
